<svg width="278" height="39" viewBox="0 0 278 39" fill="none" xmlns="http://www.w3.org/2000/svg">
<path d="M41.9119 4.01602V4.97602C40.8879 5.00802 40.1199 5.13602 39.6079 5.36002C39.0959 5.55202 38.7439 5.93602 38.5519 6.51202C38.3919 7.05602 38.3119 7.92002 38.3119 9.10402V32.912C38.3119 34.064 38.3919 34.928 38.5519 35.504C38.7439 36.08 39.0959 36.464 39.6079 36.656C40.1199 36.848 40.8879 36.976 41.9119 37.04V38C41.0159 37.936 39.8799 37.904 38.5039 37.904C37.1599 37.872 35.7839 37.856 34.3759 37.856C32.8399 37.856 31.3999 37.872 30.0559 37.904C28.7119 37.904 27.6239 37.936 26.7919 38V37.04C27.8799 36.976 28.6959 36.848 29.2399 36.656C29.8159 36.464 30.1999 36.08 30.3919 35.504C30.5839 34.928 30.6799 34.064 30.6799 32.912V6.94402H31.0159L19.1119 38.048H18.3439L5.38393 7.13602V30.128C5.38393 31.888 5.47993 33.248 5.67193 34.208C5.86393 35.136 6.27993 35.808 6.91993 36.224C7.59193 36.608 8.63193 36.88 10.0399 37.04V38C9.43193 37.936 8.63193 37.904 7.63993 37.904C6.64793 37.872 5.71993 37.856 4.85593 37.856C4.11993 37.856 3.36793 37.872 2.59993 37.904C1.83193 37.904 1.19193 37.936 0.679932 38V37.04C1.70393 36.88 2.47193 36.608 2.98393 36.224C3.49593 35.84 3.83193 35.216 3.99193 34.352C4.18393 33.456 4.27993 32.24 4.27993 30.704V9.10402C4.27993 7.92002 4.18393 7.05602 3.99193 6.51202C3.83193 5.93602 3.47993 5.55202 2.93593 5.36002C2.42393 5.13602 1.67193 5.00802 0.679932 4.97602V4.01602C1.19193 4.04802 1.83193 4.08002 2.59993 4.11202C3.36793 4.14402 4.11993 4.16002 4.85593 4.16002C6.23193 4.16002 7.57593 4.14402 8.88793 4.11202C10.2319 4.08002 11.4159 4.04802 12.4399 4.01602L22.5199 28.352L21.3199 29.456L30.9679 4.16002C31.5119 4.16002 32.0719 4.16002 32.6479 4.16002C33.2239 4.16002 33.7999 4.16002 34.3759 4.16002C35.7839 4.16002 37.1599 4.14402 38.5039 4.11202C39.8799 4.08002 41.0159 4.04802 41.9119 4.01602Z" fill="#141414"/>
<path d="M50.9791 38.336C49.5391 38.336 48.3391 38.064 47.3791 37.52C46.4191 36.976 45.7151 36.256 45.2671 35.36C44.8191 34.432 44.5951 33.424 44.5951 32.336C44.5951 30.96 44.8991 29.84 45.5071 28.976C46.1471 28.112 46.9631 27.408 47.9551 26.864C48.9471 26.32 49.9871 25.872 51.0751 25.52C52.1951 25.168 53.2511 24.832 54.2431 24.512C55.2671 24.16 56.0831 23.76 56.6911 23.312C57.3311 22.832 57.6511 22.224 57.6511 21.488V17.744C57.6511 16.912 57.5071 16.176 57.2191 15.536C56.9631 14.864 56.5471 14.352 55.9711 14C55.4271 13.648 54.7071 13.472 53.8111 13.472C53.1711 13.472 52.5311 13.568 51.8911 13.76C51.2511 13.92 50.7231 14.208 50.3071 14.624C51.2031 14.944 51.8911 15.44 52.3711 16.112C52.8831 16.752 53.1391 17.488 53.1391 18.32C53.1391 19.408 52.7551 20.272 51.9871 20.912C51.2511 21.552 50.3711 21.872 49.3471 21.872C48.1951 21.872 47.3151 21.52 46.7071 20.816C46.1311 20.08 45.8431 19.2 45.8431 18.176C45.8431 17.248 46.0671 16.48 46.5151 15.872C46.9951 15.264 47.6511 14.688 48.4831 14.144C49.3791 13.632 50.4511 13.232 51.6991 12.944C52.9791 12.656 54.3551 12.512 55.8271 12.512C57.2991 12.512 58.6271 12.672 59.8111 12.992C60.9951 13.28 61.9871 13.824 62.7871 14.624C63.5231 15.36 64.0031 16.272 64.2271 17.36C64.4511 18.416 64.5631 19.76 64.5631 21.392V34.448C64.5631 35.248 64.6431 35.808 64.8031 36.128C64.9631 36.416 65.2351 36.56 65.6191 36.56C65.9071 36.56 66.1791 36.48 66.4351 36.32C66.7231 36.16 67.0271 35.968 67.3471 35.744L67.8271 36.56C67.1551 37.136 66.3711 37.584 65.4751 37.904C64.6111 38.192 63.6351 38.336 62.5471 38.336C61.3631 38.336 60.4191 38.176 59.7151 37.856C59.0111 37.504 58.4991 37.04 58.1791 36.464C57.8911 35.888 57.7471 35.216 57.7471 34.448C56.9791 35.664 56.0511 36.624 54.9631 37.328C53.8751 38 52.5471 38.336 50.9791 38.336ZM54.3871 35.264C55.0271 35.264 55.6031 35.12 56.1151 34.832C56.6591 34.512 57.1711 34 57.6511 33.296V23.456C57.3631 23.936 56.9631 24.368 56.4511 24.752C55.9391 25.136 55.3951 25.536 54.8191 25.952C54.2431 26.336 53.6831 26.768 53.1391 27.248C52.6271 27.728 52.2111 28.32 51.8911 29.024C51.5711 29.728 51.4111 30.576 51.4111 31.568C51.4111 32.816 51.6831 33.744 52.2271 34.352C52.7711 34.96 53.4911 35.264 54.3871 35.264Z" fill="#141414"/>
<path d="M78.9428 5.31202V13.184H84.6068V14.144H78.9428V33.536C78.9428 34.496 79.1188 35.184 79.4708 35.6C79.8228 35.984 80.3508 36.176 81.0548 36.176C81.6308 36.176 82.2068 35.968 82.7828 35.552C83.3588 35.104 83.8708 34.352 84.3188 33.296L85.1348 33.728C84.6228 35.168 83.8388 36.352 82.7828 37.28C81.7588 38.208 80.3508 38.672 78.5588 38.672C77.5028 38.672 76.5748 38.528 75.7748 38.24C74.9748 37.984 74.3028 37.584 73.7588 37.04C73.0548 36.336 72.5908 35.472 72.3668 34.448C72.1428 33.392 72.0308 32.032 72.0308 30.368V14.144H67.9988V13.184H72.0308V6.84802C73.3748 6.84802 74.6068 6.73602 75.7268 6.51202C76.8788 6.25602 77.9508 5.85602 78.9428 5.31202Z" fill="#141414"/>
<path d="M98.2703 12.512C101.086 12.512 103.294 13.344 104.894 15.008C106.494 16.672 107.294 19.392 107.294 23.168H91.5023L91.4063 22.256H101.246C101.278 20.688 101.182 19.248 100.958 17.936C100.734 16.592 100.382 15.52 99.9023 14.72C99.4223 13.92 98.7823 13.52 97.9823 13.52C96.8623 13.52 95.9023 14.224 95.1023 15.632C94.3343 17.04 93.8703 19.376 93.7103 22.64L93.8543 22.928C93.8223 23.312 93.7903 23.712 93.7583 24.128C93.7583 24.544 93.7583 24.976 93.7583 25.424C93.7583 27.632 94.0623 29.424 94.6703 30.8C95.3103 32.176 96.1103 33.184 97.0703 33.824C98.0303 34.432 99.0063 34.736 99.9983 34.736C100.67 34.736 101.358 34.64 102.062 34.448C102.798 34.224 103.534 33.84 104.27 33.296C105.006 32.72 105.694 31.92 106.334 30.896L107.198 31.184C106.814 32.4 106.206 33.584 105.374 34.736C104.542 35.888 103.486 36.832 102.206 37.568C100.926 38.304 99.3903 38.672 97.5983 38.672C95.4223 38.672 93.5023 38.208 91.8383 37.28C90.1743 36.352 88.8623 34.944 87.9023 33.056C86.9743 31.168 86.5103 28.768 86.5103 25.856C86.5103 22.88 87.0063 20.4 87.9983 18.416C89.0223 16.432 90.4143 14.96 92.1743 14C93.9663 13.008 95.9983 12.512 98.2703 12.512Z" fill="#141414"/>
<path d="M133.978 12.656V32.768C133.978 34.208 134.202 35.28 134.65 35.984C135.098 36.656 135.898 36.992 137.05 36.992V38C136.058 37.904 135.066 37.856 134.074 37.856C132.73 37.856 131.482 37.904 130.33 38C129.178 38.096 128.09 38.272 127.066 38.528V34.208C126.298 35.808 125.226 36.96 123.85 37.664C122.506 38.336 121.002 38.672 119.338 38.672C117.994 38.672 116.906 38.496 116.074 38.144C115.242 37.792 114.586 37.344 114.106 36.8C113.562 36.192 113.178 35.392 112.954 34.4C112.73 33.408 112.618 32.128 112.618 30.56V18.416C112.618 16.976 112.394 15.92 111.946 15.248C111.53 14.544 110.73 14.192 109.546 14.192V13.184C110.57 13.28 111.562 13.328 112.522 13.328C113.866 13.328 115.114 13.28 116.266 13.184C117.45 13.056 118.538 12.88 119.53 12.656V32.528C119.53 33.328 119.594 34.032 119.722 34.64C119.882 35.248 120.17 35.728 120.586 36.08C121.002 36.4 121.61 36.56 122.41 36.56C123.274 36.56 124.042 36.32 124.714 35.84C125.418 35.36 125.978 34.704 126.394 33.872C126.842 33.008 127.066 32.048 127.066 30.992V18.416C127.066 16.976 126.842 15.92 126.394 15.248C125.978 14.544 125.178 14.192 123.994 14.192V13.184C125.018 13.28 126.01 13.328 126.97 13.328C128.314 13.328 129.562 13.28 130.714 13.184C131.898 13.056 132.986 12.88 133.978 12.656Z" fill="#141414"/>
<path d="M148.687 12.512C150.031 12.512 151.199 12.688 152.191 13.04C153.215 13.36 153.951 13.68 154.399 14C155.487 14.736 156.159 14.256 156.415 12.56H157.423C157.359 13.456 157.311 14.56 157.279 15.872C157.247 17.152 157.231 18.864 157.231 21.008H156.223C156.063 19.824 155.759 18.656 155.311 17.504C154.863 16.352 154.207 15.408 153.343 14.672C152.511 13.936 151.423 13.568 150.079 13.568C149.151 13.568 148.367 13.84 147.727 14.384C147.087 14.896 146.767 15.648 146.767 16.64C146.767 17.6 147.055 18.448 147.631 19.184C148.207 19.888 148.943 20.576 149.839 21.248C150.767 21.888 151.727 22.576 152.719 23.312C153.775 24.112 154.735 24.912 155.599 25.712C156.463 26.48 157.151 27.328 157.663 28.256C158.175 29.184 158.431 30.288 158.431 31.568C158.431 33.008 158.015 34.272 157.183 35.36C156.351 36.416 155.247 37.232 153.871 37.808C152.527 38.384 151.023 38.672 149.359 38.672C148.399 38.672 147.535 38.576 146.767 38.384C146.031 38.192 145.391 37.952 144.847 37.664C144.431 37.472 144.031 37.296 143.647 37.136C143.295 36.944 142.959 36.784 142.639 36.656C142.319 36.56 142.031 36.672 141.775 36.992C141.551 37.312 141.375 37.76 141.247 38.336H140.239C140.303 37.312 140.351 36.064 140.383 34.592C140.415 33.12 140.431 31.168 140.431 28.736H141.439C141.631 30.464 141.983 32 142.495 33.344C143.007 34.656 143.695 35.696 144.559 36.464C145.455 37.2 146.575 37.568 147.919 37.568C148.463 37.568 148.991 37.456 149.503 37.232C150.015 37.008 150.431 36.64 150.751 36.128C151.103 35.616 151.279 34.96 151.279 34.16C151.279 32.752 150.815 31.584 149.887 30.656C148.991 29.728 147.839 28.72 146.431 27.632C145.407 26.8 144.431 25.984 143.503 25.184C142.607 24.352 141.871 23.456 141.295 22.496C140.719 21.504 140.431 20.384 140.431 19.136C140.431 17.696 140.815 16.48 141.583 15.488C142.351 14.496 143.359 13.76 144.607 13.28C145.887 12.768 147.247 12.512 148.687 12.512Z" fill="#141414"/>
<path d="M185.038 3.39202C186.926 3.39202 188.382 3.60002 189.406 4.01602C190.43 4.40002 191.31 4.81602 192.046 5.26402C192.43 5.48802 192.734 5.66402 192.958 5.79202C193.214 5.88802 193.454 5.93602 193.678 5.93602C193.998 5.93602 194.222 5.76002 194.35 5.40802C194.51 5.05602 194.638 4.52802 194.734 3.82402H195.838C195.806 4.43202 195.758 5.16802 195.694 6.03202C195.662 6.86402 195.63 7.96802 195.598 9.34402C195.598 10.72 195.598 12.528 195.598 14.768H194.494C194.366 13.104 193.982 11.488 193.342 9.92002C192.702 8.35202 191.79 7.07202 190.606 6.08002C189.454 5.05602 188.03 4.54402 186.334 4.54402C184.798 4.54402 183.534 4.97602 182.542 5.84002C181.55 6.70402 181.054 7.90402 181.054 9.44002C181.054 10.72 181.374 11.824 182.014 12.752C182.654 13.648 183.582 14.528 184.798 15.392C186.046 16.256 187.55 17.296 189.31 18.512C190.846 19.504 192.222 20.496 193.438 21.488C194.654 22.48 195.63 23.6 196.366 24.848C197.102 26.096 197.47 27.584 197.47 29.312C197.47 31.424 196.91 33.168 195.79 34.544C194.702 35.92 193.262 36.96 191.47 37.664C189.678 38.336 187.71 38.672 185.566 38.672C183.582 38.672 181.998 38.48 180.814 38.096C179.63 37.712 178.638 37.312 177.838 36.896C177.134 36.448 176.59 36.224 176.206 36.224C175.886 36.224 175.646 36.4 175.486 36.752C175.358 37.104 175.246 37.632 175.15 38.336H174.046C174.11 37.568 174.142 36.672 174.142 35.648C174.174 34.624 174.19 33.296 174.19 31.664C174.222 30 174.238 27.904 174.238 25.376H175.342C175.47 27.488 175.822 29.472 176.398 31.328C177.006 33.152 177.918 34.624 179.134 35.744C180.382 36.864 182.03 37.424 184.078 37.424C185.198 37.424 186.19 37.232 187.054 36.848C187.95 36.432 188.67 35.824 189.214 35.024C189.758 34.224 190.03 33.232 190.03 32.048C190.03 30.704 189.71 29.536 189.07 28.544C188.462 27.552 187.614 26.624 186.526 25.76C185.47 24.896 184.238 24.016 182.83 23.12C181.326 22.128 179.918 21.136 178.606 20.144C177.294 19.152 176.238 18.016 175.438 16.736C174.67 15.456 174.286 13.936 174.286 12.176C174.286 10.16 174.782 8.51202 175.774 7.23202C176.798 5.92002 178.126 4.96002 179.758 4.35202C181.422 3.71202 183.182 3.39202 185.038 3.39202Z" fill="#141414"/>
<path d="M206.829 0.800016C208.173 0.800016 209.229 1.13602 209.997 1.80802C210.797 2.44802 211.197 3.34402 211.197 4.49602C211.197 5.64802 210.797 6.56002 209.997 7.23202C209.229 7.87202 208.173 8.19202 206.829 8.19202C205.485 8.19202 204.413 7.87202 203.613 7.23202C202.845 6.56002 202.461 5.64802 202.461 4.49602C202.461 3.34402 202.845 2.44802 203.613 1.80802C204.413 1.13602 205.485 0.800016 206.829 0.800016ZM210.573 12.656V33.536C210.573 34.88 210.797 35.792 211.245 36.272C211.725 36.752 212.525 36.992 213.645 36.992V38C213.069 37.968 212.173 37.936 210.957 37.904C209.741 37.84 208.509 37.808 207.261 37.808C206.013 37.808 204.749 37.84 203.469 37.904C202.189 37.936 201.229 37.968 200.589 38V36.992C201.709 36.992 202.493 36.752 202.941 36.272C203.421 35.792 203.661 34.88 203.661 33.536V18.416C203.661 16.976 203.437 15.92 202.989 15.248C202.573 14.544 201.773 14.192 200.589 14.192V13.184C201.613 13.28 202.605 13.328 203.565 13.328C204.909 13.328 206.157 13.28 207.309 13.184C208.493 13.056 209.581 12.88 210.573 12.656Z" fill="#141414"/>
<path d="M225.522 0.416016V33.536C225.522 34.88 225.746 35.792 226.194 36.272C226.674 36.752 227.474 36.992 228.594 36.992V38C227.986 37.968 227.074 37.936 225.858 37.904C224.642 37.84 223.41 37.808 222.162 37.808C220.914 37.808 219.65 37.84 218.37 37.904C217.122 37.936 216.178 37.968 215.538 38V36.992C216.658 36.992 217.442 36.752 217.89 36.272C218.37 35.792 218.61 34.88 218.61 33.536V6.17602C218.61 4.73602 218.386 3.68002 217.938 3.00802C217.522 2.30402 216.722 1.95202 215.538 1.95202V0.944017C216.562 1.04002 217.554 1.08802 218.514 1.08802C219.826 1.08802 221.074 1.04002 222.258 0.944017C223.442 0.816017 224.53 0.640017 225.522 0.416016Z" fill="#141414"/>
<path d="M253.82 13.184V14.144C253.212 14.304 252.636 14.688 252.092 15.296C251.548 15.872 251.02 16.864 250.508 18.272L243.5 38.096C242.988 38.064 242.46 38.048 241.916 38.048C241.404 38.048 240.892 38.064 240.38 38.096L231.836 16.88C231.324 15.632 230.812 14.88 230.3 14.624C229.82 14.336 229.404 14.192 229.052 14.192V13.184C230.076 13.248 231.132 13.312 232.22 13.376C233.34 13.408 234.556 13.424 235.868 13.424C236.86 13.424 237.9 13.408 238.988 13.376C240.108 13.312 241.148 13.248 242.108 13.184V14.192C241.436 14.192 240.828 14.224 240.284 14.288C239.772 14.352 239.42 14.56 239.228 14.912C239.036 15.264 239.068 15.888 239.324 16.784L244.94 31.664L244.46 32.336L248.252 21.824C248.86 20.096 249.116 18.688 249.02 17.6C248.924 16.48 248.572 15.648 247.964 15.104C247.356 14.528 246.54 14.208 245.516 14.144V13.184C245.996 13.216 246.508 13.248 247.052 13.28C247.628 13.28 248.172 13.296 248.684 13.328C249.228 13.328 249.708 13.328 250.124 13.328C250.764 13.328 251.436 13.312 252.14 13.28C252.844 13.248 253.404 13.216 253.82 13.184Z" fill="#141414"/>
<path d="M261.073 38.336C259.633 38.336 258.433 38.064 257.473 37.52C256.513 36.976 255.809 36.256 255.361 35.36C254.913 34.432 254.689 33.424 254.689 32.336C254.689 30.96 254.993 29.84 255.601 28.976C256.241 28.112 257.057 27.408 258.049 26.864C259.041 26.32 260.081 25.872 261.169 25.52C262.289 25.168 263.345 24.832 264.337 24.512C265.361 24.16 266.177 23.76 266.785 23.312C267.425 22.832 267.745 22.224 267.745 21.488V17.744C267.745 16.912 267.601 16.176 267.313 15.536C267.057 14.864 266.641 14.352 266.065 14C265.521 13.648 264.801 13.472 263.905 13.472C263.265 13.472 262.625 13.568 261.985 13.76C261.345 13.92 260.817 14.208 260.401 14.624C261.297 14.944 261.985 15.44 262.465 16.112C262.977 16.752 263.233 17.488 263.233 18.32C263.233 19.408 262.849 20.272 262.081 20.912C261.345 21.552 260.465 21.872 259.441 21.872C258.289 21.872 257.409 21.52 256.801 20.816C256.225 20.08 255.937 19.2 255.937 18.176C255.937 17.248 256.161 16.48 256.609 15.872C257.089 15.264 257.745 14.688 258.577 14.144C259.473 13.632 260.545 13.232 261.793 12.944C263.073 12.656 264.449 12.512 265.921 12.512C267.393 12.512 268.721 12.672 269.905 12.992C271.089 13.28 272.081 13.824 272.881 14.624C273.617 15.36 274.097 16.272 274.321 17.36C274.545 18.416 274.657 19.76 274.657 21.392V34.448C274.657 35.248 274.737 35.808 274.897 36.128C275.057 36.416 275.329 36.56 275.713 36.56C276.001 36.56 276.273 36.48 276.529 36.32C276.817 36.16 277.121 35.968 277.441 35.744L277.921 36.56C277.249 37.136 276.465 37.584 275.569 37.904C274.705 38.192 273.729 38.336 272.641 38.336C271.457 38.336 270.513 38.176 269.809 37.856C269.105 37.504 268.593 37.04 268.273 36.464C267.985 35.888 267.841 35.216 267.841 34.448C267.073 35.664 266.145 36.624 265.057 37.328C263.969 38 262.641 38.336 261.073 38.336ZM264.481 35.264C265.121 35.264 265.697 35.12 266.209 34.832C266.753 34.512 267.265 34 267.745 33.296V23.456C267.457 23.936 267.057 24.368 266.545 24.752C266.033 25.136 265.489 25.536 264.913 25.952C264.337 26.336 263.777 26.768 263.233 27.248C262.721 27.728 262.305 28.32 261.985 29.024C261.665 29.728 261.505 30.576 261.505 31.568C261.505 32.816 261.777 33.744 262.321 34.352C262.865 34.96 263.585 35.264 264.481 35.264Z" fill="#141414"/>
</svg>
